<svg width="375" height="812" viewBox="0 0 375 812" fill="none" xmlns="http://www.w3.org/2000/svg">
<g clip-path="url(#clip0_0_205)">
<rect width="375" height="812" fill="white"/>
<rect width="375" height="812" fill="url(#paint0_linear_0_205)"/>
<g clip-path="url(#clip1_0_205)">
<path opacity="0.06" d="M187.5 589C288.292 589 370 507.292 370 406.5C370 305.708 288.292 224 187.5 224C86.708 224 5 305.708 5 406.5C5 507.292 86.708 589 187.5 589Z" stroke="white" stroke-width="40"/>
<path opacity="0.06" d="M187.5 666.5C331.094 666.5 447.5 550.094 447.5 406.5C447.5 262.906 331.094 146.5 187.5 146.5C43.906 146.5 -72.5 262.906 -72.5 406.5C-72.5 550.094 43.906 666.5 187.5 666.5Z" stroke="white" stroke-width="45"/>
<path opacity="0.06" d="M187.5 748.5C376.381 748.5 529.5 595.381 529.5 406.5C529.5 217.619 376.381 64.5 187.5 64.5C-1.38138 64.5 -154.5 217.619 -154.5 406.5C-154.5 595.381 -1.38138 748.5 187.5 748.5Z" stroke="white" stroke-width="45"/>
<path opacity="0.06" d="M187.5 819.5C415.594 819.5 600.5 634.594 600.5 406.5C600.5 178.406 415.594 -6.5 187.5 -6.5C-40.5936 -6.5 -225.5 178.406 -225.5 406.5C-225.5 634.594 -40.5936 819.5 187.5 819.5Z" stroke="white" stroke-width="45"/>
<path opacity="0.06" d="M188 499.5C239.086 499.5 280.5 458.086 280.5 407C280.5 355.914 239.086 314.5 188 314.5C136.914 314.5 95.5 355.914 95.5 407C95.5 458.086 136.914 499.5 188 499.5Z" stroke="white" stroke-width="35"/>
<path d="M110.872 428C110.403 428 109.997 427.851 109.656 427.552C109.357 427.253 109.208 426.869 109.208 426.4V393.632H97.944C97.4747 393.632 97.0693 393.483 96.728 393.184C96.4293 392.885 96.28 392.501 96.28 392.032V384.864C96.28 384.395 96.4293 384.011 96.728 383.712C97.0693 383.371 97.4747 383.2 97.944 383.2H132.696C133.165 383.2 133.549 383.371 133.848 383.712C134.189 384.011 134.36 384.395 134.36 384.864V392.032C134.36 392.501 134.189 392.885 133.848 393.184C133.549 393.483 133.165 393.632 132.696 393.632H121.432V426.4C121.432 426.869 121.261 427.253 120.92 427.552C120.621 427.851 120.237 428 119.768 428H110.872ZM137.748 428C137.321 428 136.937 427.851 136.596 427.552C136.297 427.211 136.148 426.827 136.148 426.4V396.384C136.148 395.915 136.297 395.531 136.596 395.232C136.895 394.891 137.279 394.72 137.748 394.72H145.556C146.025 394.72 146.409 394.891 146.708 395.232C147.049 395.531 147.22 395.915 147.22 396.384V398.816C148.415 397.493 149.801 396.491 151.38 395.808C153.001 395.083 154.793 394.72 156.756 394.72H159.636C160.105 394.72 160.489 394.869 160.788 395.168C161.087 395.467 161.236 395.851 161.236 396.32V403.296C161.236 403.723 161.087 404.107 160.788 404.448C160.489 404.747 160.105 404.896 159.636 404.896H153.172C151.465 404.896 150.143 405.365 149.204 406.304C148.308 407.243 147.86 408.565 147.86 410.272V426.4C147.86 426.869 147.689 427.253 147.348 427.552C147.049 427.851 146.665 428 146.196 428H137.748ZM175.134 428.64C172.872 428.64 170.803 428.213 168.926 427.36C167.091 426.464 165.64 425.248 164.574 423.712C163.55 422.176 163.038 420.491 163.038 418.656C163.038 415.755 164.232 413.408 166.622 411.616C169.054 409.781 172.382 408.523 176.606 407.84L184.542 406.624V405.856C184.542 404.277 184.222 403.125 183.582 402.4C182.942 401.675 181.854 401.312 180.318 401.312C179.464 401.312 178.739 401.461 178.142 401.76C177.587 402.059 176.947 402.507 176.222 403.104C175.667 403.573 175.176 403.915 174.75 404.128C174.579 404.427 174.366 404.576 174.11 404.576H166.686C166.259 404.576 165.896 404.448 165.598 404.192C165.342 403.893 165.235 403.552 165.278 403.168C165.32 402.016 165.896 400.736 167.006 399.328C168.115 397.877 169.8 396.64 172.062 395.616C174.323 394.592 177.118 394.08 180.446 394.08C185.736 394.08 189.662 395.253 192.222 397.6C194.782 399.904 196.062 403.04 196.062 407.008V426.4C196.062 426.827 195.912 427.211 195.614 427.552C195.315 427.851 194.931 428 194.462 428H186.59C186.163 428 185.779 427.851 185.438 427.552C185.139 427.211 184.99 426.827 184.99 426.4V424.16C184.051 425.483 182.75 426.571 181.086 427.424C179.422 428.235 177.438 428.64 175.134 428.64ZM178.333 421.088C180.211 421.088 181.726 420.469 182.878 419.232C184.072 417.995 184.67 416.203 184.67 413.856V413.088L179.358 413.984C175.774 414.667 173.982 415.947 173.982 417.824C173.982 418.805 174.387 419.595 175.198 420.192C176.051 420.789 177.096 421.088 178.333 421.088ZM213.99 428C213.392 428 212.923 427.872 212.582 427.616C212.283 427.317 212.027 426.912 211.814 426.4L199.654 396.704C199.611 396.576 199.59 396.405 199.59 396.192C199.59 395.765 199.718 395.424 199.974 395.168C200.272 394.869 200.635 394.72 201.062 394.72H208.678C209.574 394.72 210.214 395.168 210.598 396.064L217.574 415.2L224.614 396.064C224.742 395.723 224.955 395.424 225.254 395.168C225.552 394.869 225.958 394.72 226.47 394.72H234.15C234.534 394.72 234.875 394.869 235.174 395.168C235.472 395.424 235.622 395.765 235.622 396.192L235.494 396.704L223.398 426.4C223.184 426.912 222.907 427.317 222.566 427.616C222.224 427.872 221.755 428 221.158 428H213.99ZM255.148 428.64C249.772 428.64 245.633 427.403 242.732 424.928C239.873 422.411 238.316 418.848 238.06 414.24C238.017 413.685 237.996 412.725 237.996 411.36C237.996 409.995 238.017 409.035 238.06 408.48C238.316 403.957 239.916 400.437 242.86 397.92C245.847 395.36 249.943 394.08 255.148 394.08C260.353 394.08 264.428 395.36 267.372 397.92C270.359 400.437 271.98 403.957 272.236 408.48C272.321 409.589 272.364 410.549 272.364 411.36C272.364 412.171 272.321 413.131 272.236 414.24C271.98 418.848 270.401 422.411 267.5 424.928C264.641 427.403 260.524 428.64 255.148 428.64ZM255.148 420.576C256.897 420.576 258.199 420.043 259.052 418.976C259.905 417.867 260.396 416.181 260.524 413.92C260.567 413.493 260.588 412.64 260.588 411.36C260.588 410.08 260.567 409.227 260.524 408.8C260.396 406.581 259.905 404.917 259.052 403.808C258.199 402.699 256.897 402.144 255.148 402.144C253.399 402.144 252.097 402.699 251.244 403.808C250.391 404.917 249.9 406.581 249.772 408.8L249.708 411.36L249.772 413.92C249.9 416.181 250.391 417.867 251.244 418.976C252.097 420.043 253.399 420.576 255.148 420.576Z" fill="white"/>
</g>
</g>
<defs>
<linearGradient id="paint0_linear_0_205" x1="-187.5" y1="406" x2="430.659" y2="691.48" gradientUnits="userSpaceOnUse">
<stop stop-color="#8F67E8"/>
<stop offset="1" stop-color="#6357CC"/>
</linearGradient>
<clipPath id="clip0_0_205">
<rect width="375" height="812" fill="white"/>
</clipPath>
<clipPath id="clip1_0_205">
<rect width="781" height="781" fill="white" transform="translate(-203 16)"/>
</clipPath>
</defs>
</svg>
